# Made in Blockbench 4.12.5
mtllib japanese_cheesecake_slice4.mtl

o cylinder
v 0 0.015625 0
v 0 0.515625 0
v 0.133974375 0.015625 0.5
v 0.133974375 0.515625 0.5
v 0.366025625 0.015625 0.366025625
v 0.366025625 0.515625 0.366025625
v 0.5 0.015625 0.133974375
v 0.5 0.515625 0.133974375
v 0.5 0.015625 -0.133974375
v 0.5 0.515625 -0.133974375
v 0.366025625 0.015625 -0.366025625
v 0.366025625 0.515625 -0.366025625
v 0.133974375 0.015625 -0.5
v 0.133974375 0.515625 -0.5
v -0.133974375 0.015625 -0.5
v -0.133974375 0.515625 -0.5
v -0.366025625 0.015625 -0.366025625
v -0.366025625 0.515625 -0.366025625
v -0.5 0.015625 -0.133974375
v -0.5 0.515625 -0.133974375
vt 0.21650625 0.96650625
vt 0.15849375 1
vt 0.125 0.875
vt 0.13505625 0.453125
vt 0.20204375 0.453125
vt 0.20204375 0.578125
vt 0.13505625 0.578125
vt 0.36161875 0.53125
vt 0.41963125 0.56474375
vt 0.328125 0.65625
vt 0.25 0.90849375
vt 0.21650625 0.96650625
vt 0.125 0.875
vt 0.26670625 0.875
vt 0.33369375 0.875
vt 0.33369375 1
vt 0.26670625 1
vt 0.41963125 0.56474375
vt 0.453125 0.62275625
vt 0.328125 0.65625
vt 0.25 0.84150625
vt 0.25 0.90849375
vt 0.125 0.875
vt 0.33369375 0.875
vt 0.40068125 0.875
vt 0.40068125 1
vt 0.33369375 1
vt 0.453125 0.62275625
vt 0.453125 0.68974375
vt 0.328125 0.65625
vt 0.21650625 0.78349375
vt 0.25 0.84150625
vt 0.125 0.875
vt 0.40068125 0.875
vt 0.46766875 0.875
vt 0.46766875 1
vt 0.40068125 1
vt 0.453125 0.68974375
vt 0.41963125 0.74775625
vt 0.328125 0.65625
vt 0.15849375 0.75
vt 0.21650625 0.78349375
vt 0.125 0.875
vt 0.45420625 0.453125
vt 0.52119375 0.453125
vt 0.52119375 0.578125
vt 0.45420625 0.578125
vt 0.41963125 0.74775625
vt 0.36161875 0.78125
vt 0.328125 0.65625
vt 0.09150625 0.75
vt 0.15849375 0.75
vt 0.125 0.875
vt 0.52119375 0.453125
vt 0.58818125 0.453125
vt 0.58818125 0.578125
vt 0.52119375 0.578125
vt 0.36161875 0.78125
vt 0.29463125 0.78125
vt 0.328125 0.65625
vt 0.03349375 0.78349375
vt 0.09150625 0.75
vt 0.125 0.875
vt 0.58818125 0.453125
vt 0.65516875 0.453125
vt 0.65516875 0.578125
vt 0.58818125 0.578125
vt 0.29463125 0.78125
vt 0.23661875 0.74775625
vt 0.328125 0.65625
vt 0 0.84150625
vt 0.03349375 0.78349375
vt 0.125 0.875
vt 0.45420625 0.734375
vt 0.52119375 0.734375
vt 0.52119375 0.859375
vt 0.45420625 0.859375
vt 0.23661875 0.74775625
vt 0.203125 0.68974375
vt 0.328125 0.65625
vt 0.457534375 0.359375
vt 0.328125 0.359375
vt 0.328125 0.234375
vt 0.457534375 0.234375
vt 0.457534375 0.359375
vt 0.328125 0.359375
vt 0.328125 0.234375
vt 0.457534375 0.234375
vn 0 -1 0
vn 0.49999866583004415 0 0.8660261740664515
vn 0 1 0
vn 0 -1 0
vn 0.8660261740664515 0 0.49999866583004415
vn 0 1 0
vn 0 -1 0
vn 1 0 0
vn 0 1 0
vn 0 -1 0
vn 0.8660261740664515 0 -0.49999866583004415
vn 0 1 0
vn 0 -1 0
vn 0.49999866583004415 0 -0.8660261740664515
vn 0 1 0
vn 0 -1 0
vn 0 0 -1
vn 0 1 0
vn 0 -1 0
vn -0.49999866583004415 0 -0.8660261740664515
vn 0 1 0
vn 0 -1 0
vn -0.8660261740664515 0 -0.49999866583004415
vn 0 1 0
vn -0.25881864637420704 0 0.9659259331279099
vn -0.9659259331279099 0 0.25881864637420704
usemtl m_a3a9c4a6-01f3-b784-c5ff-889b30bae726
f 5/1/1 3/2/1 1/3/1
f 3/4/2 5/5/2 6/6/2 4/7/2
f 4/8/3 6/9/3 2/10/3
f 7/11/4 5/12/4 1/13/4
f 5/14/5 7/15/5 8/16/5 6/17/5
f 6/18/6 8/19/6 2/20/6
f 9/21/7 7/22/7 1/23/7
f 7/24/8 9/25/8 10/26/8 8/27/8
f 8/28/9 10/29/9 2/30/9
f 11/31/10 9/32/10 1/33/10
f 9/34/11 11/35/11 12/36/11 10/37/11
f 10/38/12 12/39/12 2/40/12
f 13/41/13 11/42/13 1/43/13
f 11/44/14 13/45/14 14/46/14 12/47/14
f 12/48/15 14/49/15 2/50/15
f 15/51/16 13/52/16 1/53/16
f 13/54/17 15/55/17 16/56/17 14/57/17
f 14/58/18 16/59/18 2/60/18
f 17/61/19 15/62/19 1/63/19
f 15/64/20 17/65/20 18/66/20 16/67/20
f 16/68/21 18/69/21 2/70/21
f 19/71/22 17/72/22 1/73/22
f 17/74/23 19/75/23 20/76/23 18/77/23
f 18/78/24 20/79/24 2/80/24
f 2/81/25 20/82/25 19/83/25 1/84/25
f 4/85/26 2/86/26 1/87/26 3/88/26