# Made in Blockbench 4.12.5
mtllib japanese_cheesecake_slice11.mtl

o cylinder
v 0 0.015625 0
v 0 0.515625 0
v -0.366025625 0.015625 -0.366025625
v -0.366025625 0.515625 -0.366025625
v -0.5 0.015625 -0.133974375
v -0.5 0.515625 -0.133974375
vt 0 0.84150625
vt 0.03349375 0.78349375
vt 0.125 0.875
vt 0.45420625 0.734375
vt 0.52119375 0.734375
vt 0.52119375 0.859375
vt 0.45420625 0.859375
vt 0.23661875 0.74775625
vt 0.203125 0.68974375
vt 0.328125 0.65625
vt 0.457534375 0.359375
vt 0.328125 0.359375
vt 0.328125 0.234375
vt 0.457534375 0.234375
vt 0.45753437500000005 0.234375
vt 0.45753437500000005 0.359375
vt 0.328125 0.359375
vt 0.328125 0.234375
vn 0 -1 0
vn -0.8660261740664515 0 -0.49999866583004415
vn 0 1 0
vn -0.25881864637420704 0 0.9659259331279099
vn 0.7071067811865476 0 -0.7071067811865476
usemtl m_a3a9c4a6-01f3-b784-c5ff-889b30bae726
f 5/1/1 3/2/1 1/3/1
f 3/4/2 5/5/2 6/6/2 4/7/2
f 4/8/3 6/9/3 2/10/3
f 2/11/4 6/12/4 5/13/4 1/14/4
f 3/15/5 4/16/5 2/17/5 1/18/5