# Made in Blockbench 4.12.6
mtllib tatami_mat.mtl

o cube
v 3 0.03125 1
v 3 0.03125 0
v 3 0 1
v 3 0 0
v 0 0.03125 0
v 0 0.03125 1
v 0 0 0
v 0 0 1
vt 0 0.5
vt 0.75 0.5
vt 0.75 0.4921875
vt 0 0.4921875
vt 0 0.46875
vt 0.25 0.46875
vt 0.25 0.4609375
vt 0 0.4609375
vt 0 0.484375
vt 0.75 0.484375
vt 0.75 0.4765625
vt 0 0.4765625
vt 0.25 0.46875
vt 0.5 0.46875
vt 0.5 0.4609375
vt 0.25 0.4609375
vt 0 1
vt 0.75 1
vt 0.75 0.75
vt 0 0.75
vt 0.75 0.75
vt 0 0.75
vt 0 0.5
vt 0.75 0.5
vn 0 0 -1
vn 1 0 0
vn 0 0 1
vn -1 0 0
vn 0 1 0
vn 0 -1 0
usemtl m_5cf68dcf-a6b2-6638-a6e3-2593501195a7
f 4/4/1 7/3/1 5/2/1 2/1/1
f 3/8/2 4/7/2 2/6/2 1/5/2
f 8/12/3 3/11/3 1/10/3 6/9/3
f 7/16/4 8/15/4 6/14/4 5/13/4
f 6/20/5 1/19/5 2/18/5 5/17/5
f 7/24/6 4/23/6 3/22/6 8/21/6