# Made in Blockbench 4.12.6
mtllib zabuton_red.mtl

o cylinder
v 0.5 0 0.5
v 0.5 0.5625 0.5
v 0.5791922201622681 0 1
v 0.5791922201622681 0.5625 1
v 0.7298247742126792 0 0.9510565162951535
v 0.7298247742126792 0.5625 0.9510565162951535
v 0.8579604780797938 0 0.8579604780797938
v 0.8579604780797938 0.5625 0.8579604780797938
v 0.9510565162951534 0 0.7298247742126793
v 0.9510565162951534 0.5625 0.7298247742126793
v 1 0 0.5791922201622681
v 1 0.5625 0.5791922201622681
v 1 0 0.42080777983773177
v 1 0.5625 0.42080777983773177
v 0.9510565162951535 0 0.2701752257873208
v 0.9510565162951535 0.5625 0.2701752257873208
v 0.8579604780797938 0 0.1420395219202062
v 0.8579604780797938 0.5625 0.1420395219202062
v 0.7298247742126793 0 0.048943483704846524
v 0.7298247742126793 0.5625 0.048943483704846524
v 0.5791922201622682 0 5.551115123125783e-17
v 0.5791922201622682 0.5625 5.551115123125783e-17
v 0.42080777983773193 0 0
v 0.42080777983773193 0.5625 0
v 0.270175225787321 0 0.04894348370484636
v 0.270175225787321 0.5625 0.04894348370484636
v 0.1420395219202062 0 0.14203952192020608
v 0.1420395219202062 0.5625 0.14203952192020608
v 0.048943483704846524 0 0.27017522578732067
v 0.048943483704846524 0.5625 0.27017522578732067
v 5.551115123125783e-17 0 0.42080777983773177
v 5.551115123125783e-17 0.5625 0.42080777983773177
v 0 0 0.579192220162268
v 0 0.5625 0.579192220162268
v 0.04894348370484647 0 0.7298247742126792
v 0.04894348370484647 0.5625 0.7298247742126792
v 0.14203952192020608 0 0.8579604780797938
v 0.14203952192020608 0.5625 0.8579604780797938
v 0.27017522578732067 0 0.9510565162951534
v 0.27017522578732067 0.5625 0.9510565162951534
v 0.42080777983773177 0 1
v 0.42080777983773177 0.5625 1
vt 0.18245625 0.9877640625
vt 0.1447984375 1
vt 0.125 0.875
vt 0.5744859375 0.4375
vt 0.6140828125 0.4375
vt 0.6140828125 0.578125
vt 0.5744859375 0.578125
vt 0.3479234375 0.53125
vt 0.38558125 0.5434859375000001
vt 0.328125 0.65625
vt 0.214490625 0.964490625
vt 0.18245625 0.9877640625
vt 0.125 0.875
vt 0.6140828125 0.4375
vt 0.6536796874999999 0.4375
vt 0.6536796874999999 0.578125
vt 0.6140828125 0.578125
vt 0.38558125 0.5434859375000001
vt 0.417615625 0.566759375
vt 0.328125 0.65625
vt 0.23776406249999998 0.93245625
vt 0.214490625 0.964490625
vt 0.125 0.875
vt 0.2681953125 0.859375
vt 0.30779218750000004 0.859375
vt 0.30779218750000004 1
vt 0.2681953125 1
vt 0.417615625 0.566759375
vt 0.4408890625 0.59879375
vt 0.328125 0.65625
vt 0.25 0.8947984375
vt 0.23776406249999998 0.93245625
vt 0.125 0.875
vt 0.30779218750000004 0.859375
vt 0.3473890625 0.859375
vt 0.3473890625 1
vt 0.30779218750000004 1
vt 0.4408890625 0.59879375
vt 0.453125 0.6364515625
vt 0.328125 0.65625
vt 0.25 0.8552015625
vt 0.25 0.8947984375
vt 0.125 0.875
vt 0.3473890625 0.859375
vt 0.3869859375 0.859375
vt 0.3869859375 1
vt 0.3473890625 1
vt 0.453125 0.6364515625
vt 0.453125 0.6760484375
vt 0.328125 0.65625
vt 0.23776406249999998 0.81754375
vt 0.25 0.8552015625
vt 0.125 0.875
vt 0.3869859375 0.859375
vt 0.42658281249999996 0.859375
vt 0.42658281249999996 1
vt 0.3869859375 1
vt 0.453125 0.6760484375
vt 0.4408890625 0.71370625
vt 0.328125 0.65625
vt 0.214490625 0.785509375
vt 0.23776406249999998 0.81754375
vt 0.125 0.875
vt 0.42658281249999996 0.859375
vt 0.4661796875 0.859375
vt 0.4661796875 1
vt 0.42658281249999996 1
vt 0.4408890625 0.71370625
vt 0.417615625 0.745740625
vt 0.328125 0.65625
vt 0.18245625 0.7622359375000001
vt 0.214490625 0.785509375
vt 0.125 0.875
vt 0.4713203125 0.703125
vt 0.5109171875 0.703125
vt 0.5109171875 0.84375
vt 0.4713203125 0.84375
vt 0.417615625 0.745740625
vt 0.38558125 0.7690140624999999
vt 0.328125 0.65625
vt 0.1447984375 0.75
vt 0.18245625 0.7622359375000001
vt 0.125 0.875
vt 0.5109171875 0.703125
vt 0.5505140625 0.703125
vt 0.5505140625 0.84375
vt 0.5109171875 0.84375
vt 0.38558125 0.7690140624999999
vt 0.3479234375 0.78125
vt 0.328125 0.65625
vt 0.10520156250000001 0.75
vt 0.1447984375 0.75
vt 0.125 0.875
vt 0.5505140625 0.703125
vt 0.5901109375 0.703125
vt 0.5901109375 0.84375
vt 0.5505140625 0.84375
vt 0.3479234375 0.78125
vt 0.3083265625 0.78125
vt 0.328125 0.65625
vt 0.06754375 0.7622359375000001
vt 0.10520156250000001 0.75
vt 0.125 0.875
vt 0.5901109375 0.703125
vt 0.6297078125 0.703125
vt 0.6297078125 0.84375
vt 0.5901109375 0.84375
vt 0.3083265625 0.78125
vt 0.27066875 0.7690140624999999
vt 0.328125 0.65625
vt 0.035509374999999996 0.785509375
vt 0.06754375 0.7622359375000001
vt 0.125 0.875
vt 0.6297078125 0.703125
vt 0.6693046874999999 0.703125
vt 0.6693046874999999 0.84375
vt 0.6297078125 0.84375
vt 0.27066875 0.7690140624999999
vt 0.238634375 0.745740625
vt 0.328125 0.65625
vt 0.012235937500000002 0.81754375
vt 0.035509374999999996 0.785509375
vt 0.125 0.875
vt 0.002570312500000005 0.4375
vt 0.04216718750000001 0.4375
vt 0.04216718750000001 0.578125
vt 0.002570312500000005 0.578125
vt 0.238634375 0.745740625
vt 0.21536093750000002 0.71370625
vt 0.328125 0.65625
vt 0 0.8552015625
vt 0.012235937500000002 0.81754375
vt 0.125 0.875
vt 0.04216718750000001 0.4375
vt 0.0817640625 0.4375
vt 0.0817640625 0.578125
vt 0.04216718750000001 0.578125
vt 0.21536093750000002 0.71370625
vt 0.203125 0.6760484375
vt 0.328125 0.65625
vt 0 0.8947984375
vt 0 0.8552015625
vt 0.125 0.875
vt 0.0817640625 0.4375
vt 0.1213609375 0.4375
vt 0.1213609375 0.578125
vt 0.0817640625 0.578125
vt 0.203125 0.6760484375
vt 0.203125 0.6364515625
vt 0.328125 0.65625
vt 0.012235937500000002 0.93245625
vt 0 0.8947984375
vt 0.125 0.875
vt 0.1213609375 0.4375
vt 0.1609578125 0.4375
vt 0.1609578125 0.578125
vt 0.1213609375 0.578125
vt 0.203125 0.6364515625
vt 0.21536093750000002 0.59879375
vt 0.328125 0.65625
vt 0.035509374999999996 0.964490625
vt 0.012235937500000002 0.93245625
vt 0.125 0.875
vt 0.1609578125 0.4375
vt 0.2005546875 0.4375
vt 0.2005546875 0.578125
vt 0.1609578125 0.578125
vt 0.21536093750000002 0.59879375
vt 0.238634375 0.566759375
vt 0.328125 0.65625
vt 0.06754375 0.9877640625
vt 0.035509374999999996 0.964490625
vt 0.125 0.875
vt 0.4556953125 0.4375
vt 0.49529218750000004 0.4375
vt 0.49529218750000004 0.578125
vt 0.4556953125 0.578125
vt 0.238634375 0.566759375
vt 0.27066875 0.5434859375000001
vt 0.328125 0.65625
vt 0.1052015625 1
vt 0.06754375 0.9877640625
vt 0.125 0.875
vt 0.49529218750000004 0.4375
vt 0.5348890625 0.4375
vt 0.5348890625 0.578125
vt 0.49529218750000004 0.578125
vt 0.27066875 0.5434859375000001
vt 0.3083265625 0.53125
vt 0.328125 0.65625
vt 0.1447984375 1
vt 0.1052015625 1
vt 0.125 0.875
vt 0.5348890625 0.4375
vt 0.5744859375 0.4375
vt 0.5744859375 0.578125
vt 0.5348890625 0.578125
vt 0.3083265625 0.53125
vt 0.3479234375 0.53125
vt 0.328125 0.65625
vn 0 -1 0
vn 0.30901699437494773 0 0.9510565162951535
vn 0 1 0
vn 0 -1 0
vn 0.5877852522924729 0 0.8090169943749476
vn 0 1 0
vn 0 -1 0
vn 0.8090169943749477 0 0.5877852522924728
vn 0 1 0
vn 0 -1 0
vn 0.9510565162951534 0 0.309016994374948
vn 0 1 0
vn 0 -1 0
vn 1 0 -3.504836151677093e-16
vn 0 1 0
vn 0 -1 0
vn 0.9510565162951535 0 -0.3090169943749476
vn 0 1 0
vn 0 -1 0
vn 0.8090169943749477 0 -0.5877852522924728
vn 0 1 0
vn 0 -1 0
vn 0.5877852522924729 0 -0.8090169943749476
vn 0 1 0
vn 0 -1 0
vn 0.30901699437494773 0 -0.9510565162951535
vn 0 1 0
vn 0 -1 0
vn 3.504836151677096e-16 0 -1
vn 0 1 0
vn 0 -1 0
vn -0.3090169943749474 0 -0.9510565162951538
vn 0 1 0
vn 0 -1 0
vn -0.5877852522924725 0 -0.809016994374948
vn 0 1 0
vn 0 -1 0
vn -0.8090169943749477 0 -0.5877852522924728
vn 0 1 0
vn 0 -1 0
vn -0.9510565162951535 0 -0.30901699437494773
vn 0 1 0
vn 0 -1 0
vn -1 0 -3.504836151677096e-16
vn 0 1 0
vn 0 -1 0
vn -0.9510565162951535 0 0.3090169943749476
vn 0 1 0
vn 0 -1 0
vn -0.8090169943749477 0 0.5877852522924727
vn 0 1 0
vn 0 -1 0
vn -0.5877852522924732 0 0.8090169943749475
vn 0 1 0
vn 0 -1 0
vn -0.30901699437494773 0 0.9510565162951535
vn 0 1 0
vn 0 -1 0
vn -3.5048361516770923e-16 0 1
vn 0 1 0
usemtl m_19ffdde1-d369-832c-041b-724a70383c94
f 5/1/1 3/2/1 1/3/1
f 3/4/2 5/5/2 6/6/2 4/7/2
f 4/8/3 6/9/3 2/10/3
f 7/11/4 5/12/4 1/13/4
f 5/14/5 7/15/5 8/16/5 6/17/5
f 6/18/6 8/19/6 2/20/6
f 9/21/7 7/22/7 1/23/7
f 7/24/8 9/25/8 10/26/8 8/27/8
f 8/28/9 10/29/9 2/30/9
f 11/31/10 9/32/10 1/33/10
f 9/34/11 11/35/11 12/36/11 10/37/11
f 10/38/12 12/39/12 2/40/12
f 13/41/13 11/42/13 1/43/13
f 11/44/14 13/45/14 14/46/14 12/47/14
f 12/48/15 14/49/15 2/50/15
f 15/51/16 13/52/16 1/53/16
f 13/54/17 15/55/17 16/56/17 14/57/17
f 14/58/18 16/59/18 2/60/18
f 17/61/19 15/62/19 1/63/19
f 15/64/20 17/65/20 18/66/20 16/67/20
f 16/68/21 18/69/21 2/70/21
f 19/71/22 17/72/22 1/73/22
f 17/74/23 19/75/23 20/76/23 18/77/23
f 18/78/24 20/79/24 2/80/24
f 21/81/25 19/82/25 1/83/25
f 19/84/26 21/85/26 22/86/26 20/87/26
f 20/88/27 22/89/27 2/90/27
f 23/91/28 21/92/28 1/93/28
f 21/94/29 23/95/29 24/96/29 22/97/29
f 22/98/30 24/99/30 2/100/30
f 25/101/31 23/102/31 1/103/31
f 23/104/32 25/105/32 26/106/32 24/107/32
f 24/108/33 26/109/33 2/110/33
f 27/111/34 25/112/34 1/113/34
f 25/114/35 27/115/35 28/116/35 26/117/35
f 26/118/36 28/119/36 2/120/36
f 29/121/37 27/122/37 1/123/37
f 27/124/38 29/125/38 30/126/38 28/127/38
f 28/128/39 30/129/39 2/130/39
f 31/131/40 29/132/40 1/133/40
f 29/134/41 31/135/41 32/136/41 30/137/41
f 30/138/42 32/139/42 2/140/42
f 33/141/43 31/142/43 1/143/43
f 31/144/44 33/145/44 34/146/44 32/147/44
f 32/148/45 34/149/45 2/150/45
f 35/151/46 33/152/46 1/153/46
f 33/154/47 35/155/47 36/156/47 34/157/47
f 34/158/48 36/159/48 2/160/48
f 37/161/49 35/162/49 1/163/49
f 35/164/50 37/165/50 38/166/50 36/167/50
f 36/168/51 38/169/51 2/170/51
f 39/171/52 37/172/52 1/173/52
f 37/174/53 39/175/53 40/176/53 38/177/53
f 38/178/54 40/179/54 2/180/54
f 41/181/55 39/182/55 1/183/55
f 39/184/56 41/185/56 42/186/56 40/187/56
f 40/188/57 42/189/57 2/190/57
f 3/191/58 41/192/58 1/193/58
f 41/194/59 3/195/59 4/196/59 42/197/59
f 42/198/60 4/199/60 2/200/60